<svg width="50" height="50" viewBox="0 0 50 50" fill="none" xmlns="http://www.w3.org/2000/svg">
<path d="M14.0421 22.824C15.6552 23.0766 17.1016 24.5355 17.3423 26.145C17.677 27.8658 18.0124 29.5865 18.3471 31.3072C18.4565 31.8497 18.4274 32.4209 18.1742 32.8862C17.892 33.4481 17.2913 33.8239 16.635 33.8177C16.4828 33.8149 16.3307 33.805 16.1774 33.7887C14.3241 33.5598 12.4725 33.3232 10.6193 33.0993C8.86092 32.9071 7.25962 31.2623 7.10674 29.5088C6.90432 27.9491 6.70148 26.389 6.49494 24.8291C6.44199 24.3823 6.35974 23.9345 6.35172 23.4878C6.3415 22.7321 6.84303 22.0612 7.5334 21.8267C7.96854 21.6655 8.46352 21.6848 8.93626 21.7809C10.6384 22.1286 12.3401 22.4778 14.0421 22.824Z" fill="#295BFF"/>
<path d="M32.4171 25.3054C34.0301 25.558 35.4766 27.0169 35.7173 28.6265C36.0519 30.3472 36.3875 32.0679 36.722 33.7887C36.8316 34.3312 36.8024 34.9023 36.5492 35.3676C36.267 35.9295 35.6663 36.3053 35.01 36.2991C34.8578 36.2963 34.7057 36.2866 34.5525 36.2701C32.6991 36.0412 30.8475 35.8047 28.9944 35.5807C27.2359 35.3885 25.6346 33.7437 25.4818 31.9902C25.2794 30.4305 25.0765 28.8704 24.87 27.3105C24.817 26.8637 24.7347 26.416 24.7267 25.9693C24.7165 25.2136 25.218 24.5426 25.9084 24.3081C26.3435 24.1469 26.8385 24.1663 27.3113 24.2623C29.0133 24.6101 30.7151 24.9592 32.4171 25.3054Z" fill="#295BFF"/>
<path d="M11.5246 14.6601C11.4566 15.8022 11.709 16.9651 11.861 18.1165C12.3656 21.7182 12.8848 25.3189 13.3902 28.9198C13.7924 31.9916 16.1708 34.844 19.049 36.1369C20.3039 36.7098 21.6435 36.7833 22.9496 36.9745C26.0026 37.3727 29.0534 37.7966 32.1057 38.1993C33.1476 38.3216 34.196 38.5353 35.2311 38.496C35.0539 39.2736 34.793 40.0389 34.2738 40.6296C33.3777 41.7101 31.855 42.1285 30.3836 41.9008C26.1874 41.3367 21.9907 40.7633 17.795 40.2084C13.9672 39.7286 10.4398 36.2072 9.9236 32.3922C9.39414 28.604 8.8425 24.8145 8.31678 21.0265C8.10609 19.6792 7.80797 18.2255 8.37063 17.0122C8.87503 15.7025 10.1379 14.8821 11.5255 14.6592L11.5246 14.6601Z" fill="#295BFF"/>
<path d="M17.7218 19.1472C19.3349 19.3998 20.7813 20.8587 21.022 22.4683C21.3567 24.189 21.6921 25.9097 22.0268 27.6305C22.1363 28.173 22.1071 28.7441 21.854 29.2095C21.5717 29.7713 20.971 30.1471 20.3147 30.1409C20.1626 30.1381 20.0104 30.1284 19.8572 30.1119C18.0039 29.883 16.1522 29.6465 14.2991 29.4225C12.5407 29.2303 10.9393 27.5855 10.7865 25.8321C10.584 24.2723 10.3812 22.7123 10.1747 21.1523C10.1217 20.7055 10.0395 20.2578 10.0314 19.8111C10.0212 19.0553 10.5227 18.3844 11.2131 18.1499C11.6483 17.9887 12.1432 18.0081 12.616 18.1041C14.3181 18.4519 16.0199 18.801 17.7218 19.1472Z" fill="#7487FF"/>
<path d="M36.1007 21.6286C37.7138 21.8812 39.1602 23.3401 39.4009 24.9497C39.7356 26.6705 40.0711 28.3913 40.4057 30.1119C40.5152 30.6544 40.486 31.2256 40.2329 31.691C39.9506 32.2528 39.3499 32.6286 38.6936 32.6224C38.5415 32.6195 38.3893 32.6098 38.2361 32.5933C36.3828 32.3645 34.5311 32.1279 32.678 31.9039C30.9196 31.7118 29.3182 30.0669 29.1654 28.3135C28.9629 26.7537 28.7601 25.1937 28.5536 23.6338C28.5006 23.187 28.4184 22.7392 28.4103 22.2925C28.4002 21.5368 28.9017 20.8658 29.592 20.6314C30.0272 20.4701 30.5221 20.4895 30.9949 20.5855C32.697 20.9334 34.3988 21.2824 36.1007 21.6286Z" fill="#7487FF"/>
<path d="M11.5252 14.6603C11.7152 12.6664 13.455 11.2114 15.4538 11.1865C15.4835 12.1862 15.6776 13.1919 15.807 14.1938C16.3073 17.6922 16.7993 21.1909 17.2903 24.6887C17.6751 28.6194 21.3018 32.3407 25.2437 32.8144C29.3982 33.3595 33.5525 33.9341 37.7078 34.4922C38.0504 34.5317 38.3913 34.5573 38.7332 34.5683C38.6407 36.5586 37.2435 38.2881 35.2298 38.4979C34.1948 38.5372 33.1464 38.3236 32.1046 38.2013C29.0541 37.7986 26.0014 37.3746 22.9484 36.9764C21.6442 36.7854 20.3027 36.7118 19.0478 36.1388C16.1696 34.8459 13.7913 31.9935 13.389 28.9217C12.8828 25.3218 12.3644 21.7201 11.8598 18.1185C11.7068 16.9661 11.4545 15.8032 11.5234 14.6621L11.5252 14.6603Z" fill="#7487FF"/>
<path d="M21.4054 15.4704C23.0185 15.723 24.4649 17.1819 24.7056 18.7916C25.0403 20.5122 25.3757 22.233 25.7104 23.9537C25.8199 24.4962 25.7907 25.0674 25.5376 25.5327C25.2552 26.0946 24.6545 26.4703 23.9983 26.4642C23.8461 26.4613 23.694 26.4516 23.5408 26.4351C21.6875 26.2063 19.8358 25.9697 17.9827 25.7457C16.2243 25.5535 14.6229 23.9087 14.4701 22.1552C14.2676 20.5955 14.0648 19.0355 13.8583 17.4756C13.8053 17.0288 13.723 16.581 13.715 16.1343C13.7048 15.3786 14.2063 14.7076 14.8967 14.4731C15.3319 14.3119 15.8268 14.3313 16.2996 14.4273C18.0017 14.7752 19.7034 15.1242 21.4054 15.4704Z" fill="#D9DDFF"/>
<path d="M39.7843 17.9518C41.3973 18.2044 42.8438 19.6633 43.0844 21.273C43.4191 22.9937 43.7545 24.7145 44.0892 26.4351C44.1987 26.9776 44.1695 27.5488 43.9164 28.0142C43.6341 28.576 43.0335 28.9518 42.3772 28.9457C42.225 28.9428 42.0729 28.933 41.9196 28.9165C40.0663 28.6877 38.2146 28.4511 36.3616 28.2272C34.6031 28.035 33.0018 26.3902 32.8489 24.6367C32.6465 23.077 32.4436 21.5169 32.2371 19.9571C32.1841 19.5102 32.1019 19.0624 32.0939 18.6157C32.0837 17.8601 32.5852 17.189 33.2755 16.9546C33.7107 16.7934 34.2057 16.8127 34.6785 16.9087C36.3805 17.2566 38.0823 17.6056 39.7843 17.9518Z" fill="#D9DDFF"/>
<path d="M32.661 9.88321C36.2795 10.4879 39.5541 13.7898 40.1321 17.4005C40.9231 21.2622 41.716 25.1239 42.5071 28.9855C42.7655 30.203 42.7138 31.4815 42.1581 32.5175C41.5397 33.769 40.2034 34.5961 38.7336 34.5665C38.3927 34.5565 38.0518 34.5309 37.7082 34.4903C33.5521 33.9331 29.3995 33.3587 25.2442 32.8126C21.3014 32.3397 17.6755 28.6175 17.2908 24.6868C16.7997 21.1891 16.3077 17.6903 15.8075 14.192C15.6781 13.1901 15.483 12.1853 15.4542 11.1847C15.4131 9.49205 16.5201 8.00151 18.0605 7.49304C19.0311 7.14245 20.1401 7.19773 21.201 7.42417C25.0213 8.24418 28.841 9.0669 32.661 9.88321Z" fill="#D9DDFF"/>
<path d="M33.4057 19.541C34.076 19.6911 34.7039 20.4366 34.8383 21.2382C35.0138 22.0963 35.1897 22.9545 35.3653 23.8127C35.4222 24.0833 35.4227 24.3659 35.3286 24.5927C35.2246 24.8669 34.9853 25.0439 34.7148 25.0307C34.652 25.0269 34.5891 25.0198 34.5257 25.0093C33.757 24.8672 32.9888 24.7214 32.2204 24.5818C31.4916 24.4594 30.7958 23.6193 30.6944 22.7478C30.5768 21.9715 30.4592 21.1949 30.3399 20.4185C30.3083 20.1963 30.2646 19.973 30.2515 19.7515C30.2307 19.3767 30.4227 19.0519 30.702 18.9462C30.8778 18.873 31.0822 18.8903 31.2791 18.9451C31.9881 19.1439 32.6969 19.3431 33.4057 19.541Z" fill="#295BFF"/>
<path d="M26.2904 18.1057C26.9832 18.2278 27.6109 18.9736 27.7224 19.8035C27.8747 20.6901 28.0274 21.5769 28.1797 22.4635C28.2294 22.743 28.2199 23.0381 28.1137 23.2796C27.9956 23.5711 27.74 23.7682 27.4585 23.7684C27.3933 23.7677 27.3281 23.7634 27.2622 23.7557C26.4664 23.647 25.6712 23.5345 24.8756 23.4283C24.1206 23.3381 23.4256 22.497 23.351 21.5925C23.2562 20.7884 23.1613 19.9839 23.0647 19.1796C23.0397 18.9492 23.0021 18.7184 22.9963 18.4879C22.9881 18.0977 23.1996 17.7488 23.4945 17.6241C23.6802 17.5386 23.8925 17.5462 24.0957 17.5933C24.8274 17.7642 25.5588 17.9356 26.2904 18.1057Z" fill="#295BFF"/>
</svg>
