<svg width="36" height="32" viewBox="0 0 36 32" fill="#F24D23" xmlns="http://www.w3.org/2000/svg">
<path d="M35.4236 31.9483C33.2881 30.3375 31.8008 28.0096 31.233 25.3895C30.8547 23.477 30.9422 21.5011 31.4881 19.6299C31.8083 18.3195 31.961 16.9734 31.9422 15.6243C31.8261 11.5084 30.1407 7.59432 27.2336 4.68963C24.3267 1.78482 20.4199 0.110899 16.3193 0.0132706C13.8173 -0.00814546 11.3461 0.568652 9.11018 1.69593C6.87413 2.8232 4.9376 4.46853 3.46052 6.49588C1.98357 8.52323 1.00851 10.8744 0.61591 13.355C0.223312 15.8357 0.424616 18.3744 1.20302 20.7614C1.98154 23.1485 3.31488 25.3152 5.09278 27.0826C6.87067 28.8498 9.04212 30.167 11.4275 30.925C13.8129 31.6831 16.3438 31.8603 18.811 31.4419C21.2781 31.0236 23.6107 30.0219 25.6158 28.5194L24.4466 27.5048C23.7655 26.9127 22.9463 26.5034 22.0651 26.3151C21.1838 26.1268 20.2696 26.1656 19.4074 26.428C17.1871 27.1097 14.8089 27.0705 12.6122 26.3158C10.4154 25.5611 8.51198 24.1294 7.17329 22.2251C5.83471 20.3206 5.12901 18.0406 5.15714 15.7101C5.18526 13.3794 5.94555 11.1172 7.32966 9.24575C8.71389 7.37442 10.6513 5.98955 12.8655 5.28832C15.0799 4.58722 17.4582 4.60576 19.6615 5.34121C21.8648 6.07665 23.7804 7.49155 25.1356 9.3843C26.4907 11.2769 27.216 13.5507 27.2081 15.8815C27.1721 16.7592 27.0657 17.6327 26.8899 18.4933C26.3559 21.75 26.4465 23.8892 27.7146 26.1612C29.8564 30.0101 35.4236 31.9483 35.4236 31.9483Z" fill="#F24D23"/>
<path d="M11.2231 17.0343C11.8724 16.3824 11.8724 15.3256 11.2231 14.6738C10.5737 14.0221 9.52097 14.0221 8.87176 14.6738C8.22243 15.3256 8.22243 16.3824 8.87176 17.0343C9.52097 17.6861 10.5737 17.6861 11.2231 17.0343Z" fill="#F24D23"/>
<path d="M17.7768 15.5702C17.8376 15.9209 17.7856 16.2819 17.6283 16.6008C17.4709 16.9198 17.2165 17.1801 16.9018 17.3442C16.5872 17.5082 16.2287 17.5673 15.8783 17.513C15.5277 17.4587 15.2037 17.2937 14.953 17.0421C14.7023 16.7903 14.538 16.465 14.4839 16.1133C14.4298 15.7615 14.4887 15.4016 14.652 15.0858C14.8154 14.7698 15.0748 14.5145 15.3926 14.3566C15.7103 14.1986 16.0699 14.1464 16.4193 14.2075C16.7577 14.2666 17.0698 14.4293 17.3128 14.6733C17.5558 14.9171 17.7178 15.2304 17.7768 15.5702Z" fill="#F24D23"/>
<path d="M23.8674 15.5702C23.9283 15.9209 23.8762 16.2819 23.7188 16.6008C23.5615 16.9198 23.3071 17.1801 22.9924 17.3442C22.6778 17.5082 22.3192 17.5673 21.9688 17.513C21.6184 17.4587 21.2944 17.2937 21.0436 17.0421C20.793 16.7903 20.6286 16.465 20.5745 16.1133C20.5204 15.7615 20.5793 15.4016 20.7427 15.0858C20.9061 14.7698 21.1654 14.5145 21.4832 14.3566C21.8009 14.1986 22.1605 14.1464 22.5098 14.2075C22.8483 14.2666 23.1605 14.4293 23.4034 14.6733C23.6464 14.9171 23.8084 15.2304 23.8674 15.5702Z" fill="#F24D23"/>
</svg>
