<svg width="405" height="62" viewBox="0 0 405 62" fill="none" xmlns="http://www.w3.org/2000/svg">
<g clip-path="url(#clip0_4822_7045)">
<path d="M13.841 27.9047C16.7385 28.3561 19.3366 30.9624 19.7691 33.8383C20.3704 36.9126 20.973 39.9869 21.574 43.0614C21.7707 44.0305 21.7183 45.0509 21.2636 45.8824C20.7565 46.8862 19.6775 47.5574 18.4985 47.5464C18.2251 47.5414 17.952 47.5241 17.6767 47.4946C14.3475 47.0856 11.0213 46.6629 7.69255 46.263C4.5338 45.9197 1.65734 42.981 1.38273 39.8481C1.01912 37.0616 0.654748 34.2742 0.28373 31.4873C0.188614 30.689 0.040857 29.889 0.0264599 29.0909C0.00809292 27.7408 0.909028 26.5421 2.14914 26.123C2.9308 25.8348 3.81995 25.8695 4.66912 26.0411C7.72666 26.6626 10.7836 27.2861 13.841 27.9047Z" fill="#295BFF"/>
<path d="M46.8529 32.3382C49.7504 32.7896 52.3487 35.3959 52.7812 38.2718C53.3822 41.3461 53.9848 44.4206 54.5861 47.4949C54.7828 48.464 54.7301 49.4844 54.2754 50.3159C53.7686 51.3197 52.6893 51.9909 51.5106 51.9802C51.2372 51.9749 50.9641 51.9576 50.6886 51.9281C47.3595 51.5191 44.0333 51.0967 40.7045 50.6965C37.5459 50.3532 34.6693 47.4145 34.3946 44.2816C34.031 41.4951 33.6668 38.7077 33.2958 35.9208C33.2005 35.1225 33.0528 34.3225 33.0385 33.5244C33.02 32.1743 33.9209 30.9756 35.1611 30.5565C35.9429 30.2686 36.8318 30.303 37.6811 30.4746C40.7386 31.0961 43.7957 31.7198 46.8529 32.3382Z" fill="#295BFF"/>
<path d="M9.32007 13.32C9.19795 15.3607 9.65123 17.4383 9.92437 19.4955C10.8307 25.9304 11.7635 32.3634 12.6714 38.7967C13.3939 44.285 17.6662 49.3811 22.8362 51.6911C25.0905 52.7147 27.497 52.846 29.8432 53.1876C35.3273 53.899 40.8075 54.6564 46.2906 55.3759C48.1622 55.5943 50.0452 55.9762 51.9047 55.9061C51.5863 57.2953 51.1179 58.6625 50.185 59.718C48.5753 61.6485 45.8401 62.3959 43.1968 61.9892C35.6592 60.9812 28.1205 59.9569 20.5837 58.9654C13.7077 58.1082 7.37145 51.817 6.44407 45.0007C5.49307 38.2327 4.50213 31.4623 3.55776 24.6946C3.17931 22.2874 2.64378 19.6902 3.65452 17.5223C4.56056 15.1823 6.82899 13.7167 9.32163 13.3185L9.32007 13.32Z" fill="#295BFF"/>
<path d="M20.4567 21.3364C23.3544 21.7877 25.9528 24.3941 26.3849 27.27C26.9862 30.3442 27.5888 33.4185 28.1899 36.4928C28.3865 37.4622 28.3341 38.4825 27.8794 39.314C27.3724 40.3178 26.2934 40.9891 25.1143 40.978C24.8409 40.973 24.5678 40.9554 24.2926 40.926C20.9632 40.5172 17.6371 40.0945 14.3084 39.6944C11.1497 39.3511 8.27318 36.4124 7.99857 33.2795C7.63497 30.4929 7.27059 27.7058 6.89957 24.9187C6.80446 24.1206 6.65673 23.3204 6.6423 22.5225C6.62396 21.1722 7.52487 19.9734 8.76498 19.5547C9.54664 19.2665 10.4358 19.3012 11.285 19.4727C14.3425 20.094 17.3994 20.7177 20.4567 21.3364Z" fill="#7487FF"/>
<path d="M53.4687 25.7696C56.3662 26.221 58.9645 28.8273 59.3967 31.7032C59.998 34.7775 60.6006 37.852 61.2017 40.9263C61.3983 41.8954 61.3459 42.9158 60.8912 43.7473C60.3841 44.7511 59.3051 45.4226 58.1261 45.4115C57.853 45.4066 57.5796 45.389 57.3044 45.3595C53.975 44.9508 50.6488 44.528 47.3203 44.1279C44.1614 43.7846 41.2849 40.8459 41.0104 37.713C40.6468 34.9265 40.2824 32.1391 39.9113 29.3522C39.8163 28.5539 39.6686 27.7539 39.6541 26.9558C39.6358 25.6057 40.5367 24.407 41.7769 23.9879C42.5584 23.7 43.4476 23.7344 44.2969 23.906C47.3544 24.5275 50.4112 25.1512 53.4687 25.7696Z" fill="#7487FF"/>
<path d="M9.31995 13.32C9.66128 9.75775 12.7866 7.15812 16.377 7.11377C16.4302 8.89984 16.779 10.6967 17.0114 12.4866C17.9102 18.7369 18.7938 24.9879 19.6759 31.237C20.3672 38.2598 26.8822 44.9085 33.963 45.7547C41.4257 46.7286 48.8884 47.7553 56.3524 48.7523C56.968 48.823 57.5804 48.8687 58.1944 48.8884C58.0282 52.4444 55.5185 55.5342 51.9015 55.9091C50.042 55.9792 48.159 55.5975 46.2871 55.3792C40.8077 54.6596 35.3241 53.9022 29.84 53.1908C27.497 52.8493 25.0873 52.7179 22.833 51.6941C17.663 49.3844 13.3906 44.2883 12.6681 38.8C11.7587 32.3683 10.8275 25.9334 9.92114 19.4985C9.64622 17.4397 9.19295 15.3619 9.31683 13.3232L9.31995 13.32Z" fill="#7487FF"/>
<path d="M27.0722 14.7676C29.9697 15.2189 32.568 17.8256 33.0002 20.7012C33.6015 23.7755 34.2041 26.85 34.8051 29.9242C35.002 30.8934 34.9494 31.914 34.4947 32.7452C33.9876 33.7491 32.9086 34.4206 31.7299 34.4095C31.4565 34.4045 31.1831 34.3869 30.9079 34.3575C27.5788 33.9487 24.2526 33.526 20.9238 33.1259C17.7652 32.7825 14.8886 29.8439 14.6139 26.711C14.2504 23.9244 13.886 21.1371 13.5149 18.3502C13.4198 17.5518 13.2721 16.7519 13.2577 15.9537C13.2393 14.6037 14.1402 13.4049 15.3804 12.986C16.1619 12.6979 17.0511 12.7325 17.9004 12.9041C20.9579 13.5255 24.0147 14.1492 27.0722 14.7676Z" fill="#D9DDFF"/>
<path d="M60.0843 19.2011C62.9818 19.6525 65.5801 22.2591 66.0123 25.1347C66.6136 28.2093 67.2162 31.2835 67.8173 34.3578C68.0139 35.3269 67.9615 36.3476 67.5068 37.1788C66.9997 38.1826 65.9207 38.8541 64.742 38.8431C64.4686 38.8381 64.1952 38.8205 63.92 38.791C60.5909 38.3823 57.2647 37.9596 53.9359 37.5594C50.777 37.2161 47.9005 34.2774 47.626 31.1445C47.2624 28.358 46.898 25.5706 46.5269 22.7837C46.4319 21.9856 46.2842 21.1854 46.2697 20.3873C46.2514 19.0372 47.1523 17.8384 48.3925 17.4194C49.174 17.1315 50.0632 17.1662 50.9125 17.3377C53.97 17.959 57.0268 18.5827 60.0843 19.2011Z" fill="#D9DDFF"/>
<path d="M47.2894 4.78532C53.7893 5.86559 59.6715 11.765 60.7097 18.2159C62.1306 25.1153 63.555 32.0146 64.9762 38.9139C65.4401 41.0892 65.3475 43.3735 64.3492 45.2245C63.2382 47.4602 60.8381 48.938 58.1976 48.8852C57.5852 48.8673 56.9731 48.8216 56.3556 48.7491C48.89 47.7537 41.4308 46.7272 33.9662 45.7515C26.8838 44.9069 20.3704 38.2566 19.6791 31.2341C18.7973 24.9847 17.9134 18.7337 17.0146 12.4835C16.7822 10.6935 16.4321 8.89821 16.3802 7.11058C16.3064 4.08645 18.2947 1.4234 21.0619 0.514964C22.8055 -0.11142 24.7975 -0.0126674 26.7036 0.391909C33.566 1.85695 40.4272 3.32685 47.2894 4.78532Z" fill="#D9DDFF"/>
<path d="M48.6251 22.04C49.829 22.3082 50.957 23.6402 51.1986 25.0722C51.5138 26.6054 51.8298 28.1386 52.1452 29.6718C52.2474 30.1554 52.2485 30.6604 52.0793 31.0655C51.8925 31.5554 51.4627 31.8717 50.9765 31.8481C50.8638 31.8415 50.7511 31.8286 50.6367 31.8097C49.256 31.556 47.8764 31.2953 46.496 31.046C45.1867 30.8275 43.9367 29.3266 43.7547 27.7692C43.5437 26.3824 43.332 24.995 43.1179 23.6079C43.0613 23.2106 42.9827 22.8118 42.9591 22.4159C42.9218 21.7466 43.2666 21.166 43.7684 20.9773C44.0842 20.8465 44.4512 20.8775 44.8051 20.9755C46.0786 21.3304 47.3518 21.6864 48.6251 22.04Z" fill="#295BFF"/>
<path d="M35.8442 19.475C37.0888 19.6934 38.2163 21.0258 38.4166 22.5083C38.6903 24.0925 38.9644 25.6769 39.2381 27.261C39.3276 27.7605 39.3103 28.2874 39.1195 28.7191C38.9073 29.2398 38.4481 29.5921 37.9426 29.5923C37.8254 29.591 37.7081 29.5834 37.5901 29.5697C36.1604 29.3756 34.7321 29.1744 33.3027 28.9847C31.9466 28.8234 30.6983 27.3209 30.5643 25.7047C30.3939 24.268 30.2232 22.8307 30.0499 21.3939C30.0049 20.9822 29.9374 20.5698 29.9271 20.1578C29.9122 19.4609 30.2923 18.8374 30.8218 18.6149C31.1556 18.462 31.5369 18.4754 31.9019 18.5598C33.2162 18.865 34.5302 19.1713 35.8442 19.475Z" fill="#295BFF"/>
<path d="M288.851 45.7119C286.932 45.7119 285.212 45.378 283.688 44.7102C282.166 44.0142 280.954 43.0821 280.051 41.9133C279.175 40.7445 278.696 39.4504 278.611 38.0313H284.577C284.691 38.9218 285.127 39.6593 285.889 40.2435C286.678 40.8281 287.652 41.1202 288.809 41.1202C289.936 41.1202 290.809 40.8977 291.431 40.4524C292.08 40.0071 292.403 39.4365 292.403 38.7408C292.403 37.9895 292.008 37.4331 291.22 37.0713C290.457 36.6817 289.229 36.2642 287.538 35.819C285.789 35.4015 284.352 34.9701 283.224 34.5248C282.123 34.0798 281.165 33.3978 280.348 32.4796C279.556 31.5612 279.162 30.3228 279.162 28.7646C279.162 27.4844 279.53 26.3156 280.263 25.2582C281.022 24.2008 282.094 23.3659 283.476 22.7535C284.886 22.1414 286.538 21.8353 288.427 21.8353C291.22 21.8353 293.448 22.531 295.11 23.9223C296.775 25.286 297.69 27.1366 297.86 29.4742H292.191C292.106 28.5558 291.712 27.8322 291.008 27.3034C290.33 26.747 289.415 26.4688 288.258 26.4688C287.186 26.4688 286.353 26.6634 285.762 27.053C285.199 27.4426 284.916 27.9854 284.916 28.6811C284.916 29.4603 285.31 30.0585 286.101 30.4759C286.89 30.8655 288.118 31.269 289.78 31.6865C291.474 32.1039 292.868 32.5353 293.969 32.9803C295.068 33.4256 296.012 34.1213 296.804 35.0676C297.622 35.986 298.045 37.2103 298.071 38.7408C298.071 40.0767 297.69 41.2734 296.931 42.3308C296.198 43.3882 295.126 44.2231 293.715 44.8352C292.334 45.4198 290.711 45.7119 288.851 45.7119Z" fill="#FAFAFA"/>
<path d="M269.052 45.3362L261.099 35.485V45.3362H255.176V14.4468H261.099V32.0204L268.968 22.211H276.666L266.345 33.8152L276.751 45.3362H269.052Z" fill="#FAFAFA"/>
<path d="M228.204 33.7735C228.204 31.3804 228.697 29.2932 229.684 27.5123C230.672 25.7035 232.039 24.3119 233.788 23.338C235.537 22.3361 237.539 21.8353 239.795 21.8353C242.701 21.8353 245.098 22.5588 246.988 24.0059C248.904 25.425 250.188 27.4287 250.836 30.0167H244.45C244.111 29.015 243.532 28.2358 242.714 27.6791C241.925 27.0948 240.938 26.8027 239.753 26.8027C238.061 26.8027 236.721 27.4148 235.734 28.6393C234.747 29.836 234.253 31.5473 234.253 33.7735C234.253 35.9721 234.747 37.6834 235.734 38.9079C236.721 40.1046 238.061 40.7028 239.753 40.7028C242.15 40.7028 243.717 39.6454 244.45 37.5305H250.836C250.188 40.035 248.904 42.0247 246.988 43.4996C245.069 44.9745 242.671 45.7119 239.795 45.7119C237.539 45.7119 235.537 45.2248 233.788 44.251C232.039 43.249 230.672 41.8576 229.684 40.0767C228.697 38.268 228.204 36.1668 228.204 33.7735Z" fill="#FAFAFA"/>
<path d="M199.532 33.6902C199.532 31.3526 199.998 29.2793 200.929 27.4705C201.887 25.6617 203.171 24.2701 204.778 23.2963C206.414 22.3221 208.233 21.8353 210.235 21.8353C211.984 21.8353 213.507 22.1832 214.804 22.8788C216.13 23.5745 217.188 24.4511 217.977 25.5086V22.211H223.942V45.3362H217.977V41.9551C217.216 43.0404 216.158 43.9449 214.804 44.6684C213.479 45.3641 211.942 45.7119 210.193 45.7119C208.219 45.7119 206.414 45.2109 204.778 44.2092C203.171 43.2075 201.887 41.802 200.929 39.9932C199.998 38.1566 199.532 36.0554 199.532 33.6902ZM217.977 33.7735C217.977 32.3543 217.695 31.1437 217.131 30.142C216.567 29.1124 215.805 28.3332 214.847 27.8044C213.888 27.248 212.858 26.9695 211.758 26.9695C210.659 26.9695 209.643 27.2341 208.713 27.7626C207.782 28.2915 207.02 29.0707 206.428 30.1002C205.864 31.102 205.582 32.2986 205.582 33.6902C205.582 35.0815 205.864 36.306 206.428 37.3634C207.02 38.393 207.782 39.1861 208.713 39.7428C209.671 40.2992 210.687 40.5775 211.758 40.5775C212.858 40.5775 213.888 40.3132 214.847 39.7846C215.805 39.2279 216.567 38.4487 217.131 37.447C217.695 36.4171 217.977 35.1929 217.977 33.7735Z" fill="#FAFAFA"/>
<path d="M191.549 27.0113V38.1983C191.549 38.9776 191.733 39.5479 192.1 39.9097C192.494 40.2436 193.143 40.4106 194.046 40.4106H196.795V45.3362H193.072C188.081 45.3362 185.585 42.9429 185.585 38.1566V27.0113H182.793V22.211H185.585V16.4923H191.549V22.211H196.795V27.0113H191.549Z" fill="#FAFAFA"/>
<path d="M169.07 45.6284C167.011 45.6284 165.15 45.2805 163.486 44.5849C161.85 43.8892 160.553 42.8872 159.594 41.5794C158.635 40.2714 158.141 38.7269 158.113 36.946H164.459C164.543 38.1426 164.966 39.0887 165.728 39.7846C166.517 40.4803 167.589 40.8281 168.943 40.8281C170.325 40.8281 171.411 40.5081 172.201 39.8679C172.99 39.2001 173.385 38.3373 173.385 37.2799C173.385 36.4172 173.117 35.7076 172.581 35.1511C172.045 34.5945 171.369 34.1631 170.55 33.857C169.761 33.5231 168.661 33.1614 167.251 32.7718C165.333 32.2151 163.768 31.6726 162.555 31.1437C161.37 30.5873 160.341 29.7663 159.467 28.6811C158.621 27.568 158.198 26.0931 158.198 24.2562C158.198 22.531 158.635 21.0283 159.509 19.7481C160.383 18.4682 161.61 17.494 163.19 16.8262C164.769 16.1305 166.574 15.7827 168.604 15.7827C171.65 15.7827 174.118 16.5201 176.008 17.995C177.926 19.442 178.983 21.4736 179.181 24.0894H172.666C172.609 23.0874 172.172 22.2667 171.355 21.6265C170.565 20.9587 169.507 20.6248 168.182 20.6248C167.025 20.6248 166.095 20.9169 165.389 21.5014C164.712 22.0857 164.374 22.9345 164.374 24.0476C164.374 24.8268 164.628 25.4807 165.136 26.0096C165.671 26.5103 166.32 26.9277 167.082 27.2619C167.871 27.568 168.971 27.9297 170.381 28.3472C172.299 28.9036 173.864 29.4603 175.077 30.0167C176.29 30.5734 177.334 31.4083 178.208 32.5214C179.082 33.6345 179.519 35.0955 179.519 36.9042C179.519 38.4626 179.11 39.9096 178.292 41.2455C177.474 42.5812 176.276 43.6525 174.697 44.4596C173.117 45.2388 171.242 45.6284 169.07 45.6284Z" fill="#FAFAFA"/>
<path d="M149.369 27.0113V38.1983C149.369 38.9776 149.552 39.5479 149.919 39.9097C150.314 40.2436 150.962 40.4106 151.865 40.4106H154.615V45.3362H150.892C145.9 45.3362 143.404 42.9429 143.404 38.1566V27.0113H140.612V22.211H143.404V16.4923H149.369V22.211H154.615V27.0113H149.369Z" fill="#FAFAFA"/>
<path d="M125.903 45.7119C123.646 45.7119 121.616 45.2248 119.811 44.251C118.006 43.249 116.582 41.8437 115.538 40.035C114.523 38.2262 114.015 36.1389 114.015 33.7735C114.015 31.4083 114.537 29.321 115.58 27.5123C116.652 25.7035 118.105 24.3119 119.938 23.338C121.771 22.3361 123.816 21.8353 126.072 21.8353C128.328 21.8353 130.373 22.3361 132.206 23.338C134.039 24.3119 135.478 25.7035 136.521 27.5123C137.593 29.321 138.129 31.4083 138.129 33.7735C138.129 36.1389 137.579 38.2262 136.479 40.035C135.407 41.8437 133.941 43.249 132.079 44.251C130.246 45.2248 128.187 45.7119 125.903 45.7119ZM125.903 40.6192C126.974 40.6192 127.976 40.3689 128.906 39.8679C129.865 39.3393 130.627 38.5601 131.191 37.5305C131.755 36.5007 132.037 35.2483 132.037 33.7735C132.037 31.5751 131.445 29.8916 130.26 28.7228C129.104 27.5262 127.68 26.9277 125.987 26.9277C124.295 26.9277 122.871 27.5262 121.714 28.7228C120.587 29.8916 120.022 31.5751 120.022 33.7735C120.022 35.9721 120.572 37.6695 121.672 38.8661C122.8 40.035 124.21 40.6192 125.903 40.6192Z" fill="#FAFAFA"/>
<path d="M105.064 30.3924C106.728 30.6985 108.096 31.5194 109.167 32.8553C110.239 34.191 110.775 35.7215 110.775 37.447C110.775 39.0054 110.38 40.3828 109.591 41.5795C108.829 42.7483 107.715 43.6665 106.249 44.3345C104.782 45.0023 103.048 45.3363 101.045 45.3363H88.3115V16.2002H100.495C102.497 16.2002 104.218 16.5202 105.656 17.1601C107.123 17.8001 108.223 18.6907 108.956 19.8317C109.718 20.9726 110.098 22.2667 110.098 23.7138C110.098 25.4111 109.633 26.8306 108.702 27.9715C107.8 29.1125 106.587 29.9193 105.064 30.3924ZM94.2339 28.2219H99.649C101.059 28.2219 102.145 27.9158 102.907 27.3034C103.668 26.6635 104.049 25.759 104.049 24.5904C104.049 23.4216 103.668 22.5171 102.907 21.8771C102.145 21.2369 101.059 20.9169 99.649 20.9169H94.2339V28.2219ZM100.199 40.5775C101.637 40.5775 102.751 40.2436 103.541 39.5758C104.359 38.908 104.768 37.9617 104.768 36.7374C104.768 35.4851 104.345 34.5109 103.499 33.8153C102.653 33.0918 101.511 32.73 100.072 32.73H94.2339V40.5775H100.199Z" fill="#FAFAFA"/>
</g>
<path d="M329.25 46H321.17V19.8182H329.608C332.148 19.8182 334.321 20.3423 336.128 21.3906C337.935 22.4304 339.32 23.9261 340.283 25.8778C341.246 27.821 341.727 30.1477 341.727 32.858C341.727 35.5852 341.241 37.9332 340.27 39.902C339.298 41.8622 337.884 43.3707 336.026 44.4276C334.168 45.4759 331.909 46 329.25 46ZM324.341 43.1875H329.045C331.21 43.1875 333.004 42.7699 334.428 41.9347C335.851 41.0994 336.912 39.9105 337.611 38.3679C338.31 36.8253 338.659 34.9886 338.659 32.858C338.659 30.7443 338.314 28.9247 337.624 27.3991C336.933 25.8651 335.902 24.6889 334.53 23.8707C333.158 23.044 331.449 22.6307 329.403 22.6307H324.341V43.1875ZM354.614 46.4091C352.841 46.4091 351.286 45.9872 349.947 45.1435C348.618 44.2997 347.578 43.1193 346.828 41.6023C346.087 40.0852 345.716 38.3125 345.716 36.2841C345.716 34.2386 346.087 32.4531 346.828 30.9276C347.578 29.402 348.618 28.2173 349.947 27.3736C351.286 26.5298 352.841 26.108 354.614 26.108C356.386 26.108 357.938 26.5298 359.267 27.3736C360.605 28.2173 361.645 29.402 362.386 30.9276C363.136 32.4531 363.511 34.2386 363.511 36.2841C363.511 38.3125 363.136 40.0852 362.386 41.6023C361.645 43.1193 360.605 44.2997 359.267 45.1435C357.938 45.9872 356.386 46.4091 354.614 46.4091ZM354.614 43.6989C355.96 43.6989 357.068 43.3537 357.938 42.6634C358.807 41.973 359.45 41.0653 359.868 39.9403C360.286 38.8153 360.494 37.5966 360.494 36.2841C360.494 34.9716 360.286 33.7486 359.868 32.6151C359.45 31.4815 358.807 30.5653 357.938 29.8665C357.068 29.1676 355.96 28.8182 354.614 28.8182C353.267 28.8182 352.159 29.1676 351.29 29.8665C350.42 30.5653 349.777 31.4815 349.359 32.6151C348.942 33.7486 348.733 34.9716 348.733 36.2841C348.733 37.5966 348.942 38.8153 349.359 39.9403C349.777 41.0653 350.42 41.973 351.29 42.6634C352.159 43.3537 353.267 43.6989 354.614 43.6989ZM376.094 46.4091C374.253 46.4091 372.668 45.9744 371.338 45.1051C370.009 44.2358 368.986 43.0384 368.27 41.5128C367.554 39.9872 367.196 38.2443 367.196 36.2841C367.196 34.2898 367.563 32.5298 368.296 31.0043C369.037 29.4702 370.069 28.2727 371.39 27.4119C372.719 26.5426 374.27 26.108 376.043 26.108C377.424 26.108 378.668 26.3636 379.776 26.875C380.884 27.3864 381.792 28.1023 382.499 29.0227C383.206 29.9432 383.645 31.017 383.816 32.2443H380.799C380.569 31.3494 380.057 30.5568 379.265 29.8665C378.48 29.1676 377.424 28.8182 376.094 28.8182C374.918 28.8182 373.887 29.125 373 29.7386C372.123 30.3437 371.436 31.2003 370.942 32.3082C370.456 33.4077 370.213 34.6989 370.213 36.1818C370.213 37.6989 370.452 39.0199 370.929 40.1449C371.415 41.2699 372.097 42.1435 372.975 42.7656C373.861 43.3878 374.901 43.6989 376.094 43.6989C376.878 43.6989 377.59 43.5625 378.229 43.2898C378.868 43.017 379.409 42.625 379.853 42.1136C380.296 41.6023 380.611 40.9886 380.799 40.2727H383.816C383.645 41.4318 383.223 42.4759 382.55 43.4048C381.885 44.3253 381.003 45.0582 379.904 45.6037C378.813 46.1406 377.543 46.4091 376.094 46.4091ZM402.135 30.7614L399.425 31.5284C399.255 31.0767 399.003 30.6378 398.671 30.2116C398.347 29.777 397.904 29.419 397.341 29.1378C396.779 28.8565 396.059 28.7159 395.181 28.7159C393.979 28.7159 392.978 28.9929 392.176 29.5469C391.384 30.0923 390.988 30.7869 390.988 31.6307C390.988 32.3807 391.26 32.973 391.806 33.4077C392.351 33.8423 393.203 34.2045 394.363 34.4943L397.277 35.2102C399.033 35.6364 400.341 36.2884 401.202 37.1662C402.063 38.0355 402.493 39.1562 402.493 40.5284C402.493 41.6534 402.169 42.6591 401.522 43.5455C400.882 44.4318 399.988 45.1307 398.837 45.642C397.686 46.1534 396.348 46.4091 394.823 46.4091C392.82 46.4091 391.162 45.9744 389.85 45.1051C388.537 44.2358 387.706 42.9659 387.357 41.2955L390.221 40.5795C390.493 41.6364 391.009 42.429 391.767 42.9574C392.534 43.4858 393.536 43.75 394.772 43.75C396.178 43.75 397.294 43.4517 398.121 42.8551C398.956 42.25 399.374 41.5256 399.374 40.6818C399.374 40 399.135 39.429 398.658 38.9688C398.181 38.5 397.448 38.1506 396.459 37.9205L393.186 37.1534C391.388 36.7273 390.067 36.0668 389.223 35.1719C388.388 34.2685 387.971 33.1392 387.971 31.7841C387.971 30.6761 388.282 29.696 388.904 28.8438C389.534 27.9915 390.391 27.3224 391.473 26.8366C392.564 26.3509 393.8 26.108 395.181 26.108C397.124 26.108 398.65 26.5341 399.757 27.3864C400.874 28.2386 401.667 29.3636 402.135 30.7614Z" fill="white" fill-opacity="0.5"/>
<defs>
<clipPath id="clip0_4822_7045">
<rect width="298" height="62" fill="white"/>
</clipPath>
</defs>
</svg>
