<svg width="244" height="36" viewBox="0 0 244 36" fill="none" xmlns="http://www.w3.org/2000/svg">
<path d="M38.9613 35.3979C38.9613 35.3979 35.7051 33.3947 34.2979 28.1324C33.8768 26.0122 33.974 23.8217 34.5813 21.7472C34.9362 20.2942 35.1045 18.8018 35.0821 17.3062C34.953 12.7437 33.0776 8.40476 29.8428 5.18466C26.608 1.96456 22.2605 0.108948 17.6975 0.000681336C14.913 -0.0238578 12.1627 0.614784 9.67401 1.8638C7.18529 3.11282 5.02963 4.93633 3.38531 7.18354C1.74098 9.43076 0.655216 12.0371 0.217798 14.7871C-0.21962 17.5371 0.00388297 20.3517 0.869804 22.9982C1.73573 25.6447 3.21921 28.0471 5.19757 30.0066C7.17593 31.9662 9.59233 33.4267 12.247 34.2673C14.9016 35.1079 17.7182 35.3045 20.4639 34.8408C23.2096 34.3772 25.8055 33.2666 28.0369 31.6009L26.7348 30.4761C25.9777 29.818 25.0661 29.3626 24.0852 29.1524C23.1044 28.9423 22.0862 28.9841 21.1259 29.2742C18.6552 30.0299 16.0089 29.9863 13.5643 29.1497C11.1198 28.3131 9.00177 26.7261 7.51216 24.6149C6.02256 22.5038 5.23744 19.9763 5.2687 17.3928C5.29996 14.8092 6.14602 12.3015 7.68627 10.227C9.22652 8.15256 11.3823 6.61729 13.8464 5.84005C16.3105 5.06281 18.957 5.08328 21.4088 5.89855C23.8605 6.71382 25.9923 8.28226 27.5003 10.3803C29.0083 12.4783 29.8154 14.9989 29.8067 17.5826C29.7666 18.5558 29.648 19.5241 29.4521 20.4782C28.8582 24.0839 28.9594 26.4597 30.3696 28.9777C32.7664 33.2495 38.9613 35.3979 38.9613 35.3979Z" fill="url(#paint0_linear_596_467)"/>
<path d="M12.0315 18.8657C12.754 18.1432 12.754 16.9719 12.0315 16.2495C11.3091 15.527 10.1378 15.527 9.41533 16.2495C8.69288 16.9719 8.69288 18.1432 9.41533 18.8657C10.1378 19.5881 11.3091 19.5881 12.0315 18.8657Z" fill="url(#paint1_linear_596_467)"/>
<path d="M19.3251 17.2441C19.3917 17.6313 19.3334 18.0297 19.1585 18.3816C18.9837 18.7335 18.7014 19.0206 18.3525 19.2014C18.0036 19.3822 17.6062 19.4473 17.2179 19.3872C16.8296 19.3271 16.4705 19.145 16.1926 18.8673C15.9146 18.5895 15.7323 18.2305 15.6719 17.8422C15.6116 17.4539 15.6764 17.0565 15.8569 16.7075C16.0375 16.3585 16.3244 16.076 16.6762 15.9009C17.028 15.7259 17.4264 15.6673 17.8137 15.7337C18.1908 15.7985 18.5385 15.9785 18.8091 16.2489C19.0798 16.5194 19.26 16.867 19.3251 17.2441Z" fill="url(#paint2_linear_596_467)"/>
<path d="M26.1018 17.2441C26.1685 17.6313 26.1101 18.0297 25.9353 18.3816C25.7604 18.7335 25.4782 19.0206 25.1293 19.2014C24.7804 19.3822 24.383 19.4473 23.9947 19.3872C23.6064 19.3271 23.2473 19.145 22.9693 18.8673C22.6914 18.5895 22.509 18.2305 22.4487 17.8422C22.3884 17.4539 22.4532 17.0565 22.6337 16.7075C22.8143 16.3585 23.1012 16.076 23.453 15.9009C23.8048 15.7259 24.2031 15.6673 24.5904 15.7337C24.9675 15.7985 25.3153 15.9785 25.5859 16.2489C25.8565 16.5194 26.0368 16.867 26.1018 17.2441Z" fill="url(#paint3_linear_596_467)"/>
<path d="M52.1191 8.87479H55.2241C55.2816 8.87044 55.3394 8.87858 55.3935 8.89863C55.4476 8.91869 55.4968 8.9502 55.5376 8.991C55.5784 9.0318 55.6099 9.08093 55.6299 9.13503C55.65 9.18913 55.6581 9.24692 55.6538 9.30446V31.5478C55.6581 31.6053 55.65 31.6631 55.6299 31.7172C55.6099 31.7713 55.5784 31.8205 55.5376 31.8613C55.4968 31.9021 55.4476 31.9336 55.3935 31.9536C55.3394 31.9737 55.2816 31.9818 55.2241 31.9775H52.1191C52.0617 31.9817 52.004 31.9734 51.95 31.9533C51.896 31.9332 51.847 31.9016 51.8063 31.8609C51.7657 31.8201 51.7342 31.771 51.7142 31.717C51.6942 31.663 51.6861 31.6053 51.6905 31.5478V9.30345C51.6863 9.24608 51.6945 9.18851 51.7146 9.1346C51.7346 9.0807 51.7661 9.03174 51.8067 8.99106C51.8474 8.95039 51.8964 8.91897 51.9503 8.89891C52.0042 8.87884 52.0618 8.87061 52.1191 8.87479Z" fill="white"/>
<path d="M60.6677 9.30345C60.6634 9.24591 60.6715 9.18813 60.6916 9.13402C60.7116 9.07992 60.7431 9.03079 60.7839 8.98999C60.8247 8.94919 60.8739 8.91768 60.928 8.89762C60.9821 8.87757 61.0399 8.86943 61.0974 8.87378H61.5922C61.8514 8.88913 62.0969 8.99554 62.2853 9.17425L74.9264 22.7338C75.0916 22.8991 75.1908 22.9652 75.327 22.9652C75.4632 22.9652 75.5574 22.8009 75.5574 22.4704V9.30345C75.553 9.246 75.5612 9.18832 75.5812 9.1343C75.6011 9.08027 75.6326 9.03118 75.6733 8.99039C75.714 8.94961 75.763 8.91808 75.8169 8.89796C75.8709 8.87784 75.9286 8.86959 75.9861 8.87378H79.091C79.1484 8.86959 79.2061 8.87784 79.2601 8.89796C79.3141 8.91808 79.3631 8.94961 79.4038 8.99039C79.4445 9.03118 79.4759 9.08027 79.4959 9.1343C79.5159 9.18832 79.524 9.246 79.5197 9.30345V31.5478C79.524 31.6053 79.5159 31.663 79.4959 31.717C79.4759 31.771 79.4445 31.8201 79.4038 31.8609C79.3631 31.9016 79.3141 31.9332 79.2601 31.9533C79.2061 31.9734 79.1484 31.9817 79.091 31.9775H78.6263C78.489 31.9751 78.3538 31.9445 78.2288 31.8876C78.1039 31.8308 77.992 31.7489 77.9001 31.647L60.9672 13.427C60.7868 13.2135 60.6813 12.9469 60.6667 12.6678L60.6677 9.30345ZM60.6677 18.447C60.6677 18.1836 60.7999 18.1465 60.9682 18.3468L64.3345 21.9766C64.5195 22.1746 64.6263 22.433 64.635 22.7038V31.5478C64.6394 31.6053 64.6312 31.6631 64.6112 31.7172C64.5911 31.7713 64.5596 31.8205 64.5188 31.8613C64.478 31.9021 64.4289 31.9336 64.3748 31.9536C64.3207 31.9737 64.2629 31.9818 64.2053 31.9775H61.1004C61.0429 31.9818 60.9851 31.9737 60.931 31.9536C60.8769 31.9336 60.8277 31.9021 60.7869 31.8613C60.7461 31.8205 60.7146 31.7713 60.6946 31.7172C60.6745 31.6631 60.6664 31.6053 60.6707 31.5478L60.6677 18.447Z" fill="white"/>
<path d="M83.6392 18.6112H94.5646C94.6219 18.6071 94.6795 18.6153 94.7334 18.6354C94.7873 18.6554 94.8363 18.6868 94.877 18.7275C94.9176 18.7682 94.9491 18.8172 94.9692 18.8711C94.9892 18.925 94.9974 18.9826 94.9932 19.0399V21.7803C94.9974 21.8376 94.9892 21.8953 94.9692 21.9492C94.9491 22.0031 94.9176 22.052 94.877 22.0927C94.8363 22.1333 94.7873 22.1648 94.7334 22.1849C94.6795 22.2049 94.6219 22.2131 94.5646 22.209H83.6392C83.5818 22.2133 83.5241 22.2052 83.47 22.1852C83.416 22.1652 83.3669 22.1338 83.3261 22.0931C83.2854 22.0524 83.2538 22.0034 83.2337 21.9494C83.2136 21.8954 83.2053 21.8377 83.2095 21.7803V19.0399C83.2053 18.9825 83.2136 18.9248 83.2337 18.8708C83.2538 18.8168 83.2854 18.7678 83.3261 18.7271C83.3669 18.6864 83.416 18.655 83.47 18.635C83.5241 18.615 83.5818 18.6069 83.6392 18.6112Z" fill="white"/>
<path d="M97.5343 31.5879L107.965 8.85175C108.013 8.7619 108.084 8.68659 108.171 8.63372C108.258 8.58086 108.358 8.55237 108.46 8.55125C108.557 8.5527 108.652 8.58168 108.734 8.63485C108.816 8.68802 108.881 8.76322 108.921 8.85175L119.351 31.5879C119.451 31.8192 119.351 31.9885 119.088 31.9885H115.852C115.721 31.9873 115.592 31.949 115.481 31.8782C115.37 31.8074 115.282 31.7067 115.225 31.5879L114.301 29.5747C114.18 29.3273 113.992 29.1189 113.759 28.9729C113.526 28.827 113.256 28.7496 112.981 28.7494H103.903C103.628 28.7496 103.359 28.827 103.125 28.9729C102.892 29.1189 102.704 29.3273 102.583 29.5747L101.659 31.5879C101.606 31.7026 101.523 31.8006 101.418 31.8713C101.313 31.9419 101.191 31.9825 101.065 31.9885H97.7967C97.5343 31.9795 97.4362 31.8142 97.5343 31.5879ZM105.622 25.0535H111.299C111.861 25.0535 112.058 24.723 111.827 24.1951L108.857 17.7258C108.724 17.4587 108.59 17.3252 108.457 17.3252C108.323 17.3252 108.19 17.4587 108.056 17.7258L105.051 24.1951C104.83 24.718 105.061 25.0485 105.622 25.0485V25.0535Z" fill="white"/>
<path d="M123.215 20.5303C123.211 20.4728 123.219 20.415 123.239 20.3609C123.259 20.3068 123.291 20.2576 123.331 20.2168C123.372 20.176 123.421 20.1445 123.475 20.1245C123.529 20.1044 123.587 20.0963 123.645 20.1006H130.84C135.857 20.1006 135.824 12.6077 130.84 12.6077H123.645C123.587 12.612 123.53 12.6039 123.476 12.5839C123.422 12.5639 123.372 12.5325 123.332 12.4918C123.291 12.4511 123.259 12.4021 123.239 12.3481C123.219 12.2942 123.211 12.2365 123.215 12.179V9.30748C123.211 9.24995 123.219 9.19213 123.239 9.13802C123.259 9.08392 123.291 9.0348 123.331 8.994C123.372 8.9532 123.421 8.92168 123.475 8.90163C123.529 8.88157 123.587 8.87344 123.645 8.87778H130.84C136.055 8.87778 138.663 12.6077 138.663 16.3717C138.714 18.2607 138.025 20.095 136.742 21.4826C135.459 22.8701 133.684 23.7009 131.797 23.7975C131.396 23.8295 130.839 23.8295 129.916 23.8295H128.1C127.977 23.824 127.854 23.8441 127.74 23.8886C127.625 23.9331 127.521 24.001 127.434 24.088C127.347 24.175 127.279 24.2792 127.235 24.3938C127.191 24.5085 127.171 24.6312 127.176 24.754V31.5478C127.181 31.6052 127.173 31.663 127.153 31.717C127.133 31.771 127.101 31.8201 127.061 31.8609C127.02 31.9016 126.971 31.9332 126.917 31.9533C126.863 31.9734 126.805 31.9817 126.748 31.9775H123.643C123.585 31.9818 123.527 31.9737 123.473 31.9536C123.419 31.9336 123.37 31.9021 123.329 31.8613C123.288 31.8205 123.257 31.7713 123.237 31.7172C123.217 31.6631 123.209 31.6053 123.213 31.5478L123.215 20.5303Z" fill="white"/>
<path d="M143.014 20.5303C143.009 20.4728 143.017 20.415 143.037 20.3609C143.057 20.3068 143.089 20.2576 143.13 20.2168C143.171 20.176 143.22 20.1445 143.274 20.1245C143.328 20.1044 143.386 20.0963 143.443 20.1006H150.639C155.656 20.1006 155.622 12.6077 150.639 12.6077H143.443C143.386 12.612 143.328 12.6039 143.274 12.5839C143.22 12.5639 143.171 12.5325 143.13 12.4918C143.089 12.4511 143.058 12.4021 143.038 12.3481C143.018 12.2942 143.009 12.2365 143.014 12.179V9.30748C143.009 9.24995 143.017 9.19213 143.037 9.13802C143.057 9.08392 143.089 9.0348 143.13 8.994C143.171 8.9532 143.22 8.92168 143.274 8.90163C143.328 8.88157 143.386 8.87344 143.443 8.87778H150.639C155.854 8.87778 158.461 12.6077 158.461 16.3717C158.512 18.2607 157.823 20.095 156.54 21.4826C155.257 22.8701 153.482 23.7009 151.595 23.7975C151.195 23.8295 150.639 23.8295 149.714 23.8295H147.898C147.775 23.8238 147.653 23.8439 147.538 23.8883C147.423 23.9327 147.319 24.0006 147.232 24.0876C147.145 24.1746 147.077 24.2788 147.033 24.3936C146.988 24.5083 146.968 24.6311 146.974 24.754V31.5478C146.978 31.6052 146.97 31.663 146.95 31.717C146.93 31.771 146.899 31.8201 146.858 31.8609C146.817 31.9016 146.768 31.9332 146.714 31.9533C146.66 31.9734 146.603 31.9817 146.545 31.9775H143.44C143.383 31.9814 143.325 31.9729 143.272 31.9527C143.218 31.9324 143.169 31.9008 143.129 31.8601C143.088 31.8193 143.057 31.7703 143.037 31.7165C143.017 31.6626 143.009 31.6051 143.014 31.5478V20.5303Z" fill="white"/>
<path d="M184.485 27.8399C184.104 28.4277 183.658 28.9706 183.155 29.4585C182.615 29.9824 182.009 30.4339 181.352 30.8016C180.639 31.2004 179.879 31.509 179.089 31.72C178.207 31.9527 177.297 32.0666 176.385 32.0586C174.831 32.0735 173.291 31.7712 171.858 31.1702C170.509 30.6049 169.291 29.7678 168.28 28.7113C167.262 27.6355 166.467 26.3693 165.941 24.9854C165.367 23.4764 165.082 21.8731 165.1 20.2588C165.082 18.6436 165.373 17.0397 165.956 15.5334C166.494 14.1475 167.299 12.8811 168.326 11.8064C169.342 10.7554 170.559 9.91949 171.904 9.34851C173.322 8.74898 174.847 8.44695 176.386 8.46111C177.937 8.46201 179.47 8.79712 180.881 9.44366C181.535 9.74354 182.151 10.1205 182.717 10.5664C183.25 10.9843 183.715 11.4835 184.093 12.0458L182.258 13.442C182.003 13.0464 181.701 12.684 181.356 12.3633C180.957 11.9883 180.51 11.6682 180.026 11.4118C179.497 11.1295 178.938 10.9062 178.36 10.7457C177.727 10.5731 177.073 10.4878 176.418 10.4923C175.115 10.4701 173.825 10.7405 172.641 11.2836C171.559 11.7885 170.595 12.5154 169.812 13.417C169.026 14.3319 168.424 15.3894 168.037 16.5319C167.626 17.7319 167.42 18.9925 167.426 20.2609C167.42 21.5316 167.632 22.7939 168.053 23.9928C168.448 25.1341 169.055 26.1907 169.842 27.1067C170.624 28.0084 171.586 28.7359 172.667 29.2421C173.84 29.7825 175.121 30.0525 176.413 30.0324C177.64 30.0359 178.852 29.7649 179.96 29.2391C181.12 28.6764 182.096 27.7963 182.775 26.7011L184.485 27.8399Z" fill="white"/>
<path d="M188.278 9.03402H190.482V18.7715H202.282V9.03402H204.485V31.4907H202.282V20.8648H190.48V31.4907H188.276L188.278 9.03402Z" fill="white"/>
<path d="M210.084 31.4907H207.668L217.028 9.03402H219.167L228.465 31.4907H226.018L223.633 25.5903H212.44L210.084 31.4907ZM213.265 23.498H222.807L218.037 11.5721L213.265 23.498Z" fill="white"/>
<path d="M236.752 31.4907H234.549V11.0642H227.301V9.03402H244V11.0642H236.75L236.752 31.4907Z" fill="white"/>
<defs>
<linearGradient id="paint0_linear_596_467" x1="10.5975" y1="4.60173" x2="24.8016" y2="36.8583" gradientUnits="userSpaceOnUse">
<stop stop-color="#F4A121"/>
<stop offset="0.552" stop-color="#F36F29"/>
<stop offset="0.988" stop-color="#F24D23"/>
</linearGradient>
<linearGradient id="paint1_linear_596_467" x1="-4.95812" y1="12.7908" x2="42.254" y2="27.1434" gradientUnits="userSpaceOnUse">
<stop stop-color="#F4A121"/>
<stop offset="0.552" stop-color="#F36F29"/>
<stop offset="0.988" stop-color="#F24D23"/>
</linearGradient>
<linearGradient id="paint2_linear_596_467" x1="7.75379" y1="-0.707094" x2="30.9978" y2="42.8494" gradientUnits="userSpaceOnUse">
<stop stop-color="#F4A121"/>
<stop offset="0.552" stop-color="#F36F29"/>
<stop offset="0.988" stop-color="#F24D23"/>
</linearGradient>
<linearGradient id="paint3_linear_596_467" x1="12.502" y1="-4.50523" x2="35.7498" y2="39.0511" gradientUnits="userSpaceOnUse">
<stop stop-color="#F4A121"/>
<stop offset="0.552" stop-color="#F36F29"/>
<stop offset="0.988" stop-color="#F24D23"/>
</linearGradient>
</defs>
</svg>