<svg width="244" height="36" viewBox="0 0 244 36" fill="none" xmlns="http://www.w3.org/2000/svg">
<path d="M38.9572 35.3965C38.9572 35.3965 35.7007 33.3963 34.2934 28.1323C33.7205 25.9889 34.1363 23.5379 34.5767 21.7475C34.9332 20.2947 35.103 18.8024 35.0821 17.3066C34.9592 7.97515 27.0288 0.0820153 17.6977 0.000681168C14.9132 -0.0238551 12.1629 0.614799 9.67412 1.86384C7.18537 3.11287 5.0297 4.93641 3.38535 7.18366C1.741 9.4309 0.655228 12.0373 0.217804 14.7873C-0.21962 17.5374 0.00387348 20.352 0.869806 22.9985C1.73574 25.6451 3.21923 28.0475 5.19762 30.0071C7.176 31.9666 9.59244 33.4271 12.2471 34.2678C14.9018 35.1084 17.7185 35.305 20.4642 34.8413C23.2099 34.3777 25.8058 33.2671 28.0373 31.6014L26.7361 30.477C25.9788 29.8195 25.0671 29.3647 24.0863 29.155C23.1055 28.9454 22.0876 28.9877 21.1276 29.2781C18.6567 30.0338 16.0103 29.9903 13.5656 29.1536C11.1209 28.317 9.00274 26.7299 7.51305 24.6187C6.02336 22.5074 5.23819 19.9798 5.26946 17.3961C5.30073 14.8124 6.14686 12.3045 7.68722 10.23C9.22758 8.15539 11.3835 6.62006 13.8478 5.84281C16.312 5.06557 18.9587 5.0861 21.4106 5.90147C23.8624 6.71685 25.9943 8.28544 27.5023 10.3836C29.0103 12.4818 29.8174 15.0026 29.8086 17.5864C29.8051 18.5842 29.6093 19.5387 29.4543 20.4818C28.8606 24.0921 28.9613 26.4628 30.372 28.9817C32.7623 33.2481 38.9572 35.3965 38.9572 35.3965Z" fill="url(#paint0_linear_596_488)"/>
<path d="M12.0269 18.8633C12.7493 18.1409 12.7493 16.9695 12.0269 16.2471C11.3044 15.5246 10.133 15.5246 9.41057 16.2471C8.68811 16.9695 8.68811 18.1409 9.41057 18.8633C10.133 19.5858 11.3044 19.5858 12.0269 18.8633Z" fill="url(#paint1_linear_596_488)"/>
<path d="M19.3201 17.2419C19.3866 17.6291 19.3282 18.0275 19.1532 18.3793C18.9783 18.7311 18.6959 19.0181 18.347 19.1988C17.9981 19.3794 17.6007 19.4443 17.2124 19.3841C16.8242 19.3239 16.4651 19.1417 16.1873 18.8639C15.9095 18.5861 15.7273 18.227 15.6671 17.8388C15.6069 17.4505 15.6718 17.0531 15.8524 16.7042C16.0331 16.3553 16.3201 16.0729 16.6719 15.898C17.0237 15.723 17.4221 15.6646 17.8093 15.7311C18.1863 15.796 18.534 15.9762 18.8045 16.2467C19.075 16.5172 19.2552 16.8648 19.3201 17.2419Z" fill="url(#paint2_linear_596_488)"/>
<path d="M26.0976 17.2419C26.1641 17.6292 26.1057 18.0276 25.9307 18.3795C25.7558 18.7313 25.4734 19.0184 25.1244 19.1991C24.7754 19.3798 24.378 19.4447 23.9897 19.3845C23.6014 19.3243 23.2423 19.1421 22.9644 18.8642C22.6865 18.5864 22.5043 18.2273 22.4441 17.8389C22.3839 17.4506 22.4488 17.0532 22.6295 16.7042C22.8102 16.3553 23.0973 16.0729 23.4492 15.8979C23.801 15.723 24.1995 15.6645 24.5868 15.7311C24.9638 15.7961 25.3114 15.9762 25.5819 16.2467C25.8525 16.5172 26.0326 16.8649 26.0976 17.2419Z" fill="url(#paint3_linear_596_488)"/>
<path d="M52.115 6.41264H55.2175C55.275 6.40805 55.3328 6.41601 55.387 6.43596C55.4412 6.45591 55.4904 6.48737 55.5312 6.52818C55.572 6.56898 55.6035 6.61816 55.6235 6.67232C55.6435 6.72647 55.6514 6.78432 55.6469 6.84187V29.0897C55.6514 29.1473 55.6435 29.2051 55.6235 29.2593C55.6035 29.3134 55.572 29.3626 55.5312 29.4034C55.4904 29.4442 55.4412 29.4757 55.387 29.4956C55.3328 29.5156 55.275 29.5235 55.2175 29.519H52.115C52.0575 29.5235 51.9996 29.5155 51.9455 29.4955C51.8914 29.4755 51.8423 29.4441 51.8015 29.4033C51.7607 29.3625 51.7293 29.3133 51.7093 29.2592C51.6894 29.2051 51.6814 29.1472 51.6859 29.0897V6.84187C51.6814 6.78436 51.6894 6.72655 51.7093 6.67242C51.7293 6.6183 51.7607 6.56915 51.8015 6.52835C51.8423 6.48755 51.8914 6.45607 51.9455 6.4361C51.9996 6.41612 52.0575 6.40812 52.115 6.41264Z" fill="#0F0F1D"/>
<path d="M60.6633 6.84187C60.6588 6.78432 60.6667 6.72647 60.6867 6.67232C60.7067 6.61816 60.7382 6.56898 60.779 6.52818C60.8198 6.48737 60.869 6.45591 60.9232 6.43596C60.9774 6.41601 61.0352 6.40805 61.0927 6.41264H61.5878C61.8466 6.42707 62.092 6.53239 62.2807 6.71003L74.9224 20.2761C75.088 20.4416 75.1867 20.507 75.319 20.507C75.4512 20.507 75.5497 20.3415 75.5497 20.0122V6.84187C75.5452 6.78436 75.5532 6.72655 75.5731 6.67242C75.5931 6.6183 75.6245 6.56915 75.6653 6.52835C75.7061 6.48755 75.7552 6.45607 75.8093 6.4361C75.8634 6.41612 75.9212 6.40812 75.9788 6.41264H79.0819C79.1394 6.40808 79.1972 6.41606 79.2513 6.43602C79.3055 6.45599 79.3546 6.48746 79.3954 6.52827C79.4362 6.56907 79.4676 6.61825 79.4876 6.67239C79.5075 6.72653 79.5155 6.78435 79.5109 6.84187V29.0897C79.5155 29.1473 79.5075 29.2051 79.4876 29.2592C79.4676 29.3134 79.4362 29.3625 79.3954 29.4033C79.3546 29.4441 79.3055 29.4756 79.2513 29.4956C79.1972 29.5155 79.1394 29.5235 79.0819 29.519H78.6193C78.4821 29.5165 78.3468 29.4858 78.2219 29.4288C78.097 29.3718 77.9852 29.2898 77.8933 29.1878L60.9605 10.968C60.7813 10.754 60.6769 10.4874 60.6633 10.2086V6.84187ZM60.6633 15.985C60.6633 15.7211 60.7956 15.6882 60.9605 15.8865L64.3273 19.5167C64.511 19.7151 64.6166 19.9735 64.6245 20.2438V29.0891C64.629 29.1467 64.621 29.2045 64.601 29.2586C64.581 29.3128 64.5495 29.3619 64.5087 29.4027C64.4679 29.4435 64.4187 29.475 64.3646 29.495C64.3104 29.5149 64.2526 29.5229 64.195 29.5183H61.0927C61.0352 29.5229 60.9774 29.515 60.9232 29.495C60.869 29.4751 60.8198 29.4436 60.779 29.4028C60.7382 29.362 60.7067 29.3128 60.6867 29.2587C60.6667 29.2045 60.6588 29.1467 60.6633 29.0891V15.985Z" fill="#0F0F1D"/>
<path d="M83.6364 16.15H94.5618C94.6193 16.1454 94.6771 16.1533 94.7312 16.1732C94.7853 16.1932 94.8344 16.2246 94.8752 16.2653C94.916 16.3061 94.9474 16.3552 94.9674 16.4092C94.9874 16.4633 94.9954 16.5211 94.9909 16.5786V19.3187C94.9955 19.3762 94.9876 19.434 94.9676 19.4882C94.9477 19.5423 94.9163 19.5915 94.8755 19.6323C94.8347 19.6731 94.7855 19.7045 94.7313 19.7245C94.6772 19.7444 94.6194 19.7523 94.5618 19.7477H83.6364C83.5788 19.7524 83.521 19.7444 83.4668 19.7245C83.4126 19.7046 83.3634 19.6732 83.3226 19.6324C83.2818 19.5916 83.2503 19.5424 83.2304 19.4882C83.2104 19.4341 83.2025 19.3762 83.2071 19.3187V16.5786C83.2026 16.5211 83.2106 16.4633 83.2306 16.4092C83.2506 16.3551 83.2821 16.306 83.3229 16.2652C83.3637 16.2245 83.4128 16.1931 83.467 16.1732C83.5211 16.1533 83.5789 16.1453 83.6364 16.15Z" fill="#0F0F1D"/>
<path d="M97.5311 29.1216L107.962 6.38014C108.01 6.2907 108.081 6.21586 108.169 6.16344C108.256 6.11102 108.355 6.08294 108.457 6.08212C108.554 6.08338 108.649 6.112 108.731 6.16471C108.812 6.21742 108.878 6.29208 108.919 6.38014L119.349 29.1216C119.449 29.3526 119.349 29.5175 119.086 29.5175H115.851C115.72 29.517 115.591 29.4795 115.48 29.4095C115.369 29.3395 115.28 29.2398 115.224 29.1216L114.3 27.1081C114.179 26.8608 113.991 26.6522 113.758 26.5063C113.524 26.3604 113.255 26.2828 112.979 26.2826H103.902C103.627 26.2827 103.357 26.3602 103.124 26.5062C102.89 26.6521 102.702 26.8607 102.582 27.1081L101.658 29.1216C101.604 29.2355 101.52 29.3325 101.416 29.4023C101.311 29.4721 101.189 29.5119 101.064 29.5175H97.7955C97.5311 29.5175 97.433 29.3528 97.5311 29.1216ZM105.619 22.5867H111.295C111.857 22.5867 112.055 22.2556 111.823 21.7283L108.853 15.2588C108.721 14.9943 108.589 14.8621 108.457 14.8623C108.325 14.8624 108.193 14.9946 108.061 15.2588L105.057 21.7283C104.826 22.256 105.057 22.5867 105.619 22.5867Z" fill="#0F0F1D"/>
<path d="M123.211 18.0647C123.207 18.0072 123.215 17.9493 123.235 17.8952C123.254 17.841 123.286 17.7918 123.327 17.751C123.368 17.7102 123.417 17.6787 123.471 17.6587C123.525 17.6386 123.583 17.6306 123.64 17.6351H130.836C135.853 17.6351 135.82 10.1432 130.836 10.1432H123.64C123.583 10.1479 123.525 10.1399 123.471 10.12C123.417 10.1001 123.368 10.0687 123.327 10.028C123.286 9.98722 123.255 9.93811 123.235 9.88401C123.215 9.82991 123.207 9.77212 123.211 9.71463V6.84186C123.207 6.78434 123.215 6.72651 123.234 6.67237C123.254 6.61823 123.286 6.56906 123.327 6.52826C123.368 6.48746 123.417 6.45599 123.471 6.43603C123.525 6.41607 123.583 6.40808 123.64 6.41263H130.836C136.052 6.41263 138.659 10.1426 138.659 13.9063C138.659 17.4039 136.381 20.9358 131.793 21.3328C131.398 21.3651 130.836 21.3651 129.912 21.3651H128.097C127.974 21.3594 127.851 21.3795 127.736 21.4239C127.621 21.4684 127.517 21.5363 127.43 21.6234C127.343 21.7104 127.276 21.8146 127.231 21.9294C127.187 22.0441 127.167 22.1669 127.173 22.2898V29.0891C127.177 29.1466 127.169 29.2044 127.149 29.2586C127.129 29.3127 127.098 29.3618 127.057 29.4026C127.016 29.4434 126.967 29.4749 126.913 29.4949C126.859 29.5149 126.801 29.5229 126.744 29.5183H123.639C123.582 29.5229 123.524 29.5149 123.47 29.495C123.416 29.475 123.366 29.4435 123.326 29.4027C123.285 29.3619 123.253 29.3128 123.233 29.2586C123.213 29.2045 123.206 29.1466 123.21 29.0891L123.211 18.0647Z" fill="#0F0F1D"/>
<path d="M143.014 18.0647C143.01 18.0072 143.018 17.9493 143.038 17.8952C143.058 17.841 143.089 17.7918 143.13 17.751C143.171 17.7102 143.22 17.6787 143.274 17.6587C143.328 17.6386 143.386 17.6306 143.444 17.6351H150.64C155.656 17.6351 155.623 10.1432 150.64 10.1432H143.444C143.386 10.1478 143.328 10.1399 143.274 10.1199C143.22 10.0999 143.171 10.0685 143.13 10.0276C143.089 9.98681 143.057 9.93761 143.037 9.88343C143.017 9.82925 143.009 9.77137 143.014 9.7138V6.84186C143.01 6.78433 143.018 6.72651 143.038 6.67239C143.058 6.61826 143.089 6.56911 143.13 6.52833C143.171 6.48754 143.22 6.45608 143.274 6.43611C143.328 6.41614 143.386 6.40813 143.444 6.41263H150.64C155.855 6.41263 158.463 10.1426 158.463 13.9063C158.463 17.4039 156.184 20.9358 151.597 21.3328C151.201 21.3651 150.64 21.3651 149.716 21.3651H147.9C147.777 21.3594 147.654 21.3795 147.539 21.424C147.425 21.4685 147.32 21.5364 147.233 21.6234C147.147 21.7104 147.079 21.8147 147.034 21.9294C146.99 22.0441 146.97 22.1669 146.976 22.2898V29.0891C146.98 29.1466 146.972 29.2044 146.952 29.2585C146.932 29.3127 146.901 29.3618 146.86 29.4026C146.82 29.4434 146.77 29.4749 146.716 29.4949C146.662 29.5149 146.604 29.5229 146.547 29.5183H143.445C143.387 29.523 143.329 29.5151 143.275 29.4952C143.221 29.4753 143.171 29.4438 143.13 29.403C143.089 29.3622 143.058 29.313 143.038 29.2587C143.018 29.2045 143.009 29.1466 143.014 29.0889V18.0647Z" fill="#0F0F1D"/>
<path d="M184.484 25.3817C184.103 25.9694 183.657 26.5122 183.154 26.9999C182.613 27.524 182.006 27.9755 181.349 28.343C180.636 28.742 179.875 29.0507 179.086 29.2619C178.203 29.4946 177.293 29.6083 176.379 29.6001C174.826 29.6151 173.285 29.3128 171.853 28.7116C170.504 28.1463 169.286 27.3093 168.274 26.2528C167.257 25.1772 166.462 23.9112 165.935 22.5275C165.362 21.0184 165.076 19.4149 165.094 17.8004C165.077 16.1852 165.367 14.5814 165.95 13.075C166.488 11.6891 167.293 10.4227 168.321 9.34811C169.336 8.29692 170.553 7.46085 171.899 6.88967C173.316 6.29023 174.841 5.98825 176.38 6.00245C177.931 6.00327 179.465 6.33827 180.875 6.98466C181.529 7.28443 182.145 7.6612 182.711 8.10699C183.244 8.52472 183.709 9.0238 184.087 9.58591L182.252 10.9818C181.997 10.5862 181.694 10.224 181.35 9.90338C180.951 9.52814 180.503 9.20796 180.019 8.95138C179.49 8.66894 178.931 8.4454 178.353 8.28477C177.72 8.11207 177.066 8.02677 176.41 8.03124C175.108 8.00894 173.817 8.27925 172.633 8.82224C171.551 9.32669 170.587 10.0532 169.804 10.9545C169.018 11.8694 168.416 12.927 168.029 14.0696C167.618 15.2698 167.412 16.5304 167.418 17.799C167.412 19.0696 167.624 20.3318 168.045 21.5306C168.44 22.6721 169.047 23.7287 169.834 24.6447C170.618 25.5466 171.582 26.2739 172.664 26.7793C173.838 27.3195 175.118 27.5893 176.41 27.569C177.637 27.5726 178.849 27.3017 179.957 26.7762C181.117 26.2137 182.093 25.3337 182.772 24.2385L184.484 25.3817Z" fill="#0F0F1D"/>
<path d="M188.276 6.57159H190.477V16.3087H202.283V6.57159H204.485V29.0285H202.283V18.4033H190.477V29.0285H188.276V6.57159Z" fill="#0F0F1D"/>
<path d="M210.082 29.0285H207.666L217.026 6.57158H219.166L228.464 29.0285H226.017L223.631 23.1281H212.438L210.082 29.0285ZM213.264 21.0352H222.806L218.035 9.10929L213.264 21.0352Z" fill="#0F0F1D"/>
<path d="M236.751 29.0285H234.549V8.60183H227.301V6.57158H244V8.60183H236.751V29.0285Z" fill="#0F0F1D"/>
<defs>
<linearGradient id="paint0_linear_596_488" x1="10.5963" y1="4.60155" x2="24.8006" y2="36.8562" gradientUnits="userSpaceOnUse">
<stop stop-color="#F4A121"/>
<stop offset="0.552" stop-color="#F36F29"/>
<stop offset="0.988" stop-color="#F24D23"/>
</linearGradient>
<linearGradient id="paint1_linear_596_488" x1="-4.96326" y1="12.7883" x2="42.2501" y2="27.1412" gradientUnits="userSpaceOnUse">
<stop stop-color="#F4A121"/>
<stop offset="0.552" stop-color="#F36F29"/>
<stop offset="0.988" stop-color="#F24D23"/>
</linearGradient>
<linearGradient id="paint2_linear_596_488" x1="7.74961" y1="-0.70869" x2="30.9922" y2="42.8448" gradientUnits="userSpaceOnUse">
<stop stop-color="#F4A121"/>
<stop offset="0.552" stop-color="#F36F29"/>
<stop offset="0.988" stop-color="#F24D23"/>
</linearGradient>
<linearGradient id="paint3_linear_596_488" x1="12.497" y1="-4.50884" x2="35.7459" y2="39.0495" gradientUnits="userSpaceOnUse">
<stop stop-color="#F4A121"/>
<stop offset="0.552" stop-color="#F36F29"/>
<stop offset="0.988" stop-color="#F24D23"/>
</linearGradient>
</defs>
</svg>